<?xml version="1.0" encoding="UTF-8"?>
<svg id="Capa_1" data-name="Capa 1" xmlns="http://www.w3.org/2000/svg" viewBox="0 0 1080 392.64">
  <defs>
    <style>
      .cls-1 {
        fill: #c10000;
      }
    </style>
  </defs>
  <path class="cls-1" d="M80.28,53.66c.64-.52,1.36-.77,2.19-.62,44.62,15.84,90.2,28.92,136.66,38.4,86.57,17.66,173.43,27.75,262.14,20.02,88.34-7.69,175.53-27.76,260.33-53.3,55.95-16.85,110.99-36.68,165.26-58.17l173.15,326.97c-.36,1.45-4.14,2.25-5.58,2.74-31.78,10.77-69.86,17.78-102.82,24.73-219.33,46.25-454.33,57.46-671.29-5.71-22.31-6.5-44.48-13.97-66.69-20.55-70.13-20.76-141.71-39.75-209.65-66.98-2.94-1.18-22.98-8.93-23.65-10.03-.56-.91-.25-1.94-.13-2.9,1.26-10.32,7.1-29.48,10.2-40.06,13.18-45.05,38.9-98.14,61.35-139.64,1.34-2.48,7.23-13.84,8.54-14.91Z"/>
</svg>