<?xml version="1.0" encoding="UTF-8"?>
<svg id="Capa_1" data-name="Capa 1" xmlns="http://www.w3.org/2000/svg" viewBox="0 0 642.12 1080">
  <defs>
    <style>
      .cls-1 {
        fill: #76c25f;
      }

      .cls-2 {
        fill: #fec5ad;
      }
    </style>
  </defs>
  <path class="cls-2" d="M469.17,14.97l172.96,124.34c-18.39,46.67-36.02,94.06-48.77,142.7-38.12,145.39-39.01,285.42-8.31,432.4,1.18,5.64,9.62,32.25,7.35,34.88-34.25,8.13-69.39,18.12-104.25,23.33-15.8,2.36-59.64,8.71-73.28,6.96-1.42-.18-2.88.05-4.13-.86-15.38-50.88-29.85-103.19-39.51-155.76-14.48-78.79-20.07-154.55-13.78-234.9,8.86-113.29,32.6-229.14,69.18-336.38,4.43-12.99,15.85-40.71,21.92-51.68l20.62,14.97Z"/>
  <path class="cls-1" d="M233.07,402.46c-1.07,8.24-.31,16.02.23,23.96,6.31,91.78,24.93,191.32,55.91,277.89,35.39,98.87,92.31,188.56,155.88,271.34,0,2.91-3.91,5.54-5.91,7.43-24.87,23.57-69.67,55.02-98.84,72.95-6.53,4.01-39.94,23.65-44.67,23.94-1.91.12-3.57-.13-4.97-1.57-41.68-47.1-81.87-95.95-117.17-148.13-84.63-125.1-126.12-259.18-154.13-406.59-5.04-26.54-12.15-55.42-14.56-82.25-2.44-27.12-7.17-47.58-3.51-79.88l231.72,40.91Z"/>
</svg>