<?xml version="1.0" encoding="UTF-8"?>
<svg id="Capa_1" data-name="Capa 1" xmlns="http://www.w3.org/2000/svg" viewBox="0 0 758.95 1080">
  <defs>
    <style>
      .cls-1 {
        fill: #fe8e67;
      }

      .cls-2 {
        fill: #a40719;
      }
    </style>
  </defs>
  <path class="cls-2" d="M1.34,906.05l36.56-69.25c79.34-171.39,108.4-342.44,92.16-531.74-1.66-19.32-4.69-38.79-7.35-57.99,24.92-1.8,49.63-6.94,74.49-9.2,17.39-1.58,35.85-3.12,53.24-3.77,10.26-.38,69.91-1.21,74.11,2.35,13.45,43.42,16.39,89.81,22.5,134.87,4.59,33.81,8.3,72.4,9.29,108.51,4.58,166.86-47.28,348.02-109.54,501.66-13.05,32.21-28.54,63.34-41.55,95.53-3.66,4.44-8.9,3.36-13.35.43-38.58-37.15-83.25-72.46-123.4-107.01-22.55-19.4-48.97-41.66-68.5-61.94l1.34-2.45Z"/>
  <path class="cls-1" d="M513.9,2.6c24.97,32.48,48.99,66.55,70.64,101.4,64.67,104.06,109.1,206.59,136.3,327.44,21,93.3,34.67,200.19,37.71,295.43,1.03,32.11-.14,64.68-1.02,96.74l-252.58-72.97c2.21-61.08,3.33-122.86-2.1-183.82-12.4-139.15-54.91-268.03-121.04-390.56-13.56-25.13-29.31-49.28-44.19-73.63-.32-3.33,5.93-7.51,8.34-9.49,17.98-14.76,49.14-32.37,69.92-44.14,30.1-17.04,54.06-31.14,95.92-48.97l2.11,2.6Z"/>
</svg>